<svg xmlns="http://www.w3.org/2000/svg" viewBox="0 0 640 420" role="img" aria-labelledby="title description">
  <title id="title">Purim gift box</title>
  <desc id="description">A plum gift box wrapped with a pink ribbon and surrounded by confetti.</desc>
  <rect width="640" height="420" rx="48" fill="#f9e5f0"/>
  <path d="M130 140h380v220H130z" fill="#8f2f67"/>
  <path d="M105 110h430v75H105z" fill="#6f1f4e"/>
  <path d="M280 110h80v250h-80z" fill="#f2a7ce"/>
  <path d="M320 112c-84-4-104-70-54-76 38-5 54 33 54 76Zm0 0c84-4 104-70 54-76-38-5-54 33-54 76Z" fill="#f2a7ce"/>
  <g fill="#d38a2e">
    <circle cx="88" cy="80" r="9"/>
    <circle cx="558" cy="65" r="7"/>
    <circle cx="570" cy="245" r="10"/>
  </g>
  <g stroke="#8f2f67" stroke-width="8" stroke-linecap="round">
    <path d="m75 220 24-22m-4 42 22-25M520 285l25 20m-4-43 25 19"/>
  </g>
</svg>
